<?xml version="1.0" encoding="utf-8"?>
<!-- Generator: Adobe Illustrator 25.1.0, SVG Export Plug-In . SVG Version: 6.00 Build 0)  -->
<svg version="1.1" id="Layer_1" xmlns="http://www.w3.org/2000/svg" xmlns:xlink="http://www.w3.org/1999/xlink" x="0px" y="0px"
	 viewBox="0 0 733 733" style="enable-background:new 0 0 733 733;" xml:space="preserve">
<style type="text/css">
	.st0{fill-rule:evenodd;clip-rule:evenodd;}
</style>
<g>
	<path class="st0" d="M366.5,160.4c-113.9,0-206.2,92.3-206.2,206.2s92.3,206.2,206.2,206.2s206.2-92.3,206.2-206.2
		S480.3,160.4,366.5,160.4z M492.5,378c-6.3,0-11.5-5.1-11.5-11.5c0-63.3-51.3-114.5-114.5-114.5c-6.3,0-11.5-5.1-11.5-11.5
		s5.1-11.5,11.5-11.5c75.9,0,137.4,61.5,137.4,137.4C503.9,372.9,498.8,378,492.5,378z"/>
	<path class="st0" d="M721.5,355H607c-6.3,0-11.5,5.1-11.5,11.5c0,6.3,5.1,11.5,11.5,11.5h114.5c6.3,0,11.5-5.1,11.5-11.5
		S727.9,355,721.5,355z"/>
	<path class="st0" d="M131.2,417.7L87,429.5c-6.1,1.6-9.7,7.9-8.1,14c1.6,6.1,7.9,9.7,14,8.1l44.2-11.9c6.1-1.6,9.7-7.9,8.1-14
		C143.6,419.7,137.3,416.1,131.2,417.7z"/>
	<path class="st0" d="M564.9,252c3.2,5.5,10.2,7.4,15.7,4.2l99.2-57.3c5.5-3.2,7.4-10.2,4.2-15.6c-3.1-5.5-10.2-7.4-15.6-4.2
		l-99.2,57.3C563.6,239.5,561.7,246.5,564.9,252z"/>
	<path class="st0" d="M204.5,528.5c-4.5-4.5-11.7-4.5-16.2,0l-32.4,32.4c-4.5,4.5-4.5,11.7,0,16.2c4.5,4.5,11.7,4.5,16.2,0
		l32.4-32.4C209,540.2,209,533,204.5,528.5z"/>
	<path class="st0" d="M481,168.1c5.5,3.2,12.5,1.3,15.7-4.2L554,64.8c3.2-5.5,1.3-12.5-4.2-15.7c-5.5-3.2-12.5-1.3-15.6,4.2
		l-57.3,99.2C473.7,158,475.6,165,481,168.1z"/>
	<path class="st0" d="M307.2,587.8c-6.1-1.6-12.4,2-14,8.1l-11.9,44.2c-1.6,6.1,2,12.4,8.1,14c6.1,1.6,12.4-2,14-8.1l11.9-44.2
		C317,595.7,313.3,589.4,307.2,587.8z"/>
	<path class="st0" d="M366.5,137.4c6.3,0,11.5-5.1,11.5-11.5V11.5C378,5.1,372.9,0,366.5,0c-6.3,0-11.4,5.1-11.4,11.5l0,114.5
		C355.1,132.3,360.2,137.4,366.5,137.4z"/>
	<path class="st0" d="M439.8,595.8c-1.6-6.1-7.9-9.7-14-8.1c-6.1,1.6-9.7,7.9-8.1,14l11.9,44.2c1.6,6.1,7.9,9.7,14.1,8.1
		c6.1-1.6,9.7-7.9,8.1-14L439.8,595.8z"/>
	<path class="st0" d="M236.4,163.9c3.1,5.5,10.2,7.4,15.6,4.2c5.5-3.2,7.4-10.2,4.2-15.7l-57.3-99.2c-3.2-5.5-10.2-7.4-15.7-4.2
		c-5.5,3.1-7.3,10.2-4.2,15.6L236.4,163.9z"/>
	<path class="st0" d="M544.7,528.5c-4.4-4.5-11.7-4.5-16.2,0c-4.5,4.5-4.4,11.7,0,16.2l32.4,32.4c4.5,4.5,11.7,4.5,16.2,0
		c4.5-4.5,4.5-11.7,0-16.2L544.7,528.5z"/>
	<path class="st0" d="M53.3,198.9l99.2,57.3c5.5,3.2,12.5,1.3,15.6-4.2c3.2-5.5,1.3-12.5-4.2-15.7L64.8,179
		c-5.5-3.2-12.5-1.3-15.7,4.2C46,188.7,47.8,195.7,53.3,198.9z"/>
	<path class="st0" d="M595.9,439.8l44.2,11.9c6.1,1.7,12.4-2,14-8.1c1.6-6.1-2-12.4-8.1-14l-44.2-11.9c-6.1-1.7-12.4,2-14,8.1
		C586.1,431.9,589.8,438.2,595.9,439.8z"/>
	<path class="st0" d="M137.4,366.5c0-6.3-5.1-11.5-11.4-11.5l-114.6,0C5.1,355,0,360.1,0,366.5c0,6.3,5.1,11.5,11.5,11.5l114.5,0
		C132.3,377.9,137.4,372.8,137.4,366.5z"/>
	<path class="st0" d="M601.8,315.3l44.2-11.9c6.1-1.6,9.7-7.9,8.1-14.1c-1.6-6.1-7.9-9.7-14-8.1l-44.2,11.9c-6.1,1.6-9.7,7.9-8.1,14
		C589.4,313.3,595.7,316.9,601.8,315.3z"/>
	<path class="st0" d="M168.1,481c-3.1-5.5-10.1-7.4-15.6-4.2l-99.2,57.3c-5.5,3.2-7.4,10.1-4.2,15.6c3.2,5.5,10.2,7.3,15.7,4.2
		l99.2-57.3C169.4,493.5,171.3,486.5,168.1,481z"/>
	<path class="st0" d="M528.5,204.5c4.5,4.5,11.7,4.4,16.2,0l32.4-32.4c4.5-4.5,4.5-11.7,0-16.2c-4.4-4.5-11.7-4.5-16.2,0l-32.4,32.4
		C524,192.8,524,200,528.5,204.5z"/>
	<path class="st0" d="M252,564.9c-5.5-3.2-12.5-1.3-15.6,4.2l-57.3,99.2c-3.1,5.5-1.3,12.5,4.2,15.6c5.5,3.1,12.5,1.3,15.7-4.2
		l57.2-99.2C259.3,575,257.5,568,252,564.9z"/>
	<path class="st0" d="M425.8,145.2c6.1,1.7,12.3-2,14-8.1l11.9-44.2c1.6-6.1-2-12.4-8.1-14c-6.1-1.6-12.4,2-14,8.1l-11.9,44.2
		C416,137.3,419.7,143.6,425.8,145.2z"/>
	<path class="st0" d="M366.5,595.6c-6.3,0-11.4,5.1-11.5,11.4l0,114.6c0,6.3,5.1,11.4,11.4,11.4c6.3,0,11.5-5.1,11.5-11.5l0-114.6
		C377.9,600.7,372.9,595.6,366.5,595.6z"/>
	<path class="st0" d="M293.2,137.1c1.6,6.1,7.9,9.7,14,8.1c6.1-1.6,9.7-7.9,8.1-14L303.5,87c-1.7-6.1-7.9-9.7-14.1-8.1
		c-6.1,1.6-9.7,7.9-8.1,14L293.2,137.1z"/>
	<path class="st0" d="M496.6,569.1c-3.1-5.5-10.1-7.4-15.6-4.2c-5.5,3.1-7.3,10.1-4.2,15.6l57.3,99.2c3.1,5.5,10.1,7.4,15.6,4.2
		c5.5-3.2,7.4-10.2,4.2-15.7L496.6,569.1z"/>
	<path class="st0" d="M188.3,204.5c4.4,4.5,11.7,4.5,16.2,0c4.5-4.4,4.4-11.7,0-16.2l-32.4-32.4c-4.5-4.5-11.7-4.5-16.2,0
		c-4.5,4.4-4.5,11.7,0,16.2L188.3,204.5z"/>
	<path class="st0" d="M679.7,534.1l-99.2-57.2c-5.5-3.2-12.4-1.3-15.6,4.2c-3.2,5.5-1.3,12.4,4.2,15.6l99.2,57.3
		c5.5,3.1,12.4,1.3,15.6-4.2C687.1,544.3,685.2,537.3,679.7,534.1z"/>
	<path class="st0" d="M137.1,293.2l-44.3-11.9c-6.1-1.6-12.4,2-14,8.1c-1.6,6.1,2,12.4,8.1,14l44.2,11.8c6.1,1.7,12.4-2,14-8.1
		C146.9,301.1,143.2,294.9,137.1,293.2z"/>
</g>
</svg>
