<?xml version="1.0" encoding="utf-8"?>
<!-- Generator: Adobe Illustrator 25.1.0, SVG Export Plug-In . SVG Version: 6.00 Build 0)  -->
<svg version="1.1" id="Camada_1" xmlns="http://www.w3.org/2000/svg" xmlns:xlink="http://www.w3.org/1999/xlink" x="0px" y="0px"
	 viewBox="0 0 800 800" style="enable-background:new 0 0 800 800;" xml:space="preserve">
<style type="text/css">
	.st0{fill-rule:evenodd;clip-rule:evenodd;}
	.st1{fill:#FFFFFF;}
</style>
<path class="st0" d="M45.8,800h708.3v-47.2H45.8V800z M199,579.7l59.8,39.9l-25.1,38.8h-97.5L199,579.7L199,579.7z M130.3,705.6
	h129.1l51.3-79.5l24.9-37.3c6.8-10.2,18.8-15.7,30.3-13.4c31.9,6,64.3-9.2,80.3-36.8l239.7-376.5c16.8-29,8.6-66.1-18.7-84.4
	L565.9,10.2c-27.4-18.1-64.7-11.6-84.8,14.8L203.6,375.7c-19.9,26.2-21.4,62-3.7,89c6.4,9.9,6.1,22.9-0.7,33.2l-24.3,36.4
	l-79.2,99.4C84.8,647,82.8,665,90.3,680.5C97.7,695.9,113.1,705.6,130.3,705.6L130.3,705.6z"/>
<path class="st1" d="M759,623.1L70,35.2c-3.4-2.9-3.8-7.9-0.9-11.3L83.6,7c2.9-3.4,7.9-3.8,11.3-0.9l689,587.9
	c3.4,2.9,3.8,7.9,0.9,11.3l-14.5,16.9C767.4,625.6,762.4,626,759,623.1z"/>
<path d="M751,635.4L74.1,57.9c-3.4-2.9-3.8-7.9-0.9-11.3l6.5-7.6c2.9-3.4,7.9-3.8,11.3-0.9l676.9,577.6c3.4,2.9,3.8,7.9,0.9,11.3
	l-6.5,7.6C759.4,637.9,754.3,638.3,751,635.4z"/>
</svg>
