<?xml version="1.0" encoding="utf-8"?>
<!-- Generator: Adobe Illustrator 25.1.0, SVG Export Plug-In . SVG Version: 6.00 Build 0)  -->
<svg version="1.1" id="Camada_1" xmlns="http://www.w3.org/2000/svg" xmlns:xlink="http://www.w3.org/1999/xlink" x="0px" y="0px"
	 viewBox="0 0 590.6 485.4" style="enable-background:new 0 0 590.6 485.4;" xml:space="preserve">
<path d="M40.9,219.6c-10.6-8.8-26.4-7.3-35.2,3.3c-8.8,10.6-7.3,26.4,3.3,35.2L40.9,219.6z M294.9,433.4l-32,36
	c8.3,10.1,19.7,15.9,31.6,16c12,0.1,23.4-5.5,31.8-15.5L294.9,433.4z M578.1,257.2c10.6-8.9,12-24.6,3.1-35.2
	c-8.9-10.6-24.6-12-35.2-3.1L578.1,257.2z M8.2,257.1L265,471.8l32.1-38.4L40.2,218.7L8.2,257.1z M323.1,472.8l255.6-216.2
	l-32.3-38.2L290.8,434.6L323.1,472.8z M44.5,112.3c-10.6-8.8-26.4-7.3-35.2,3.3C0.5,126.2,2,142,12.6,150.8L44.5,112.3z
	 M298.5,326.1l-32,36c8.3,10.1,19.7,15.9,31.6,16c12,0.1,23.4-5.5,31.8-15.5L298.5,326.1z M581.6,150c10.6-8.9,12-24.6,3.1-35.2
	c-8.9-10.6-24.6-12-35.2-3.1L581.6,150z M11.7,149.8l256.8,214.7l32.1-38.4L43.8,111.5L11.7,149.8z M326.7,365.5l255.6-216.2
	L550,111.2L294.4,327.4L326.7,365.5z M44.5,6.5C33.9-2.3,18.1-0.8,9.3,9.8C0.5,20.5,2,36.2,12.6,45L44.5,6.5z M298.5,220.3l-32,36
	c8.3,10.1,19.7,15.9,31.6,16c12,0.1,23.4-5.5,31.8-15.5L298.5,220.3z M581.6,44.2c10.6-8.9,12-24.6,3.1-35.2
	c-8.9-10.6-24.6-12-35.2-3.1L581.6,44.2z M11.7,44.1l256.8,214.7l32.1-38.4L43.8,5.7L11.7,44.1z M326.7,259.8L582.3,43.6L550,5.4
	L294.4,221.6L326.7,259.8z"/>
</svg>
